<svg id="svg" version="1.1" xmlns="http://www.w3.org/2000/svg" xmlns:xlink="http://www.w3.org/1999/xlink" width="400" height="400" viewBox="0, 0, 400,400"><g id="svgg"><path id="path0" d="M100.500 0.290 C 99.565 0.376,98.800 0.616,98.800 0.823 C 98.800 1.030,98.457 1.200,98.038 1.200 C 97.222 1.200,93.888 2.801,93.667 3.300 C 93.593 3.465,93.278 3.600,92.967 3.600 C 92.655 3.600,92.400 3.780,92.400 4.000 C 92.400 4.220,92.218 4.400,91.996 4.400 C 91.774 4.400,91.028 4.940,90.337 5.600 C 89.646 6.260,88.922 6.800,88.727 6.800 C 88.348 6.800,85.600 9.428,85.600 9.790 C 85.600 9.910,85.060 10.572,84.400 11.263 C 83.740 11.954,83.200 12.762,83.200 13.059 C 83.200 13.357,83.020 13.600,82.800 13.600 C 82.580 13.600,82.400 13.960,82.400 14.400 C 82.400 14.840,82.220 15.200,82.000 15.200 C 81.780 15.200,81.600 15.560,81.600 16.000 C 81.600 16.440,81.420 16.800,81.200 16.800 C 80.980 16.800,80.800 17.160,80.800 17.600 C 80.800 18.040,80.620 18.400,80.400 18.400 C 80.180 18.400,80.000 18.940,80.000 19.600 C 80.000 20.260,79.838 20.800,79.640 20.800 C 79.442 20.800,79.149 21.655,78.989 22.700 C 78.512 25.803,78.328 94.000,78.796 94.000 C 79.018 94.000,79.200 94.360,79.200 94.800 C 79.200 95.244,79.467 95.600,79.800 95.600 C 80.130 95.600,80.400 95.780,80.400 96.000 C 80.400 96.229,81.606 96.400,83.218 96.400 C 86.167 96.400,88.000 95.410,88.000 93.818 C 88.000 93.478,88.180 93.200,88.400 93.200 C 88.664 93.200,88.800 81.600,88.800 59.200 C 88.800 36.800,88.936 25.200,89.200 25.200 C 89.420 25.200,89.600 24.760,89.600 24.221 C 89.600 23.683,90.050 22.396,90.600 21.362 C 91.150 20.327,91.600 19.277,91.600 19.029 C 91.600 18.780,91.960 18.317,92.400 18.000 C 92.840 17.683,93.200 17.193,93.200 16.912 C 93.200 16.630,93.380 16.400,93.600 16.400 C 93.820 16.400,94.000 16.169,94.000 15.886 C 94.000 15.604,94.545 15.051,95.211 14.657 C 95.877 14.264,96.859 13.505,97.393 12.971 C 97.927 12.437,98.642 12.000,98.982 12.000 C 99.322 12.000,99.600 11.820,99.600 11.600 C 99.600 11.380,99.960 11.200,100.400 11.200 C 100.840 11.200,101.200 11.020,101.200 10.800 C 101.200 10.580,101.740 10.400,102.400 10.400 C 103.060 10.400,103.600 10.220,103.600 10.000 C 103.600 9.780,104.410 9.600,105.400 9.600 C 106.390 9.600,107.200 9.420,107.200 9.200 C 107.200 8.937,116.333 8.800,133.800 8.800 L 160.400 8.800 160.400 17.000 L 160.400 25.200 132.574 25.200 C 103.027 25.200,103.849 25.147,102.100 27.163 L 101.201 28.200 101.200 77.100 C 101.200 109.434,101.336 126.000,101.600 126.000 C 101.820 126.000,102.000 126.283,102.000 126.629 C 102.000 127.503,102.986 128.400,103.948 128.400 C 104.391 128.400,104.864 128.580,105.000 128.800 C 105.136 129.020,105.687 129.200,106.224 129.200 C 106.761 129.200,107.200 129.020,107.200 128.800 C 107.200 128.580,107.663 128.400,108.229 128.400 C 109.386 128.400,110.400 127.573,110.400 126.629 C 110.400 126.283,110.580 126.000,110.800 126.000 C 111.064 126.000,111.200 110.667,111.200 80.800 L 111.200 35.600 136.200 35.600 C 160.933 35.600,161.200 35.609,161.200 36.400 C 161.200 36.840,161.380 37.200,161.600 37.200 C 161.820 37.200,162.000 37.560,162.000 38.000 C 162.000 38.440,162.180 38.800,162.400 38.800 C 162.620 38.800,162.800 39.030,162.800 39.312 C 162.800 39.998,167.084 44.000,167.819 44.000 C 168.138 44.000,168.400 44.180,168.400 44.400 C 168.400 44.620,168.940 44.800,169.600 44.800 C 170.260 44.800,170.800 44.980,170.800 45.200 C 170.800 45.463,180.133 45.600,198.000 45.600 C 215.867 45.600,225.200 45.463,225.200 45.200 C 225.200 44.980,225.434 44.800,225.720 44.800 C 226.456 44.800,228.393 43.859,228.397 43.500 C 228.399 43.335,228.676 43.200,229.013 43.200 C 229.699 43.200,232.400 40.658,232.400 40.013 C 232.400 39.786,232.580 39.600,232.800 39.600 C 233.020 39.600,233.200 39.330,233.200 39.000 C 233.200 38.670,233.380 38.400,233.600 38.400 C 233.820 38.400,234.000 38.027,234.000 37.571 C 234.000 35.542,233.182 35.600,261.971 35.600 L 288.800 35.600 288.800 104.000 C 288.800 149.333,288.935 172.400,289.200 172.400 C 289.420 172.400,289.600 172.686,289.600 173.036 C 289.600 173.386,290.005 174.010,290.500 174.423 C 292.362 175.976,298.000 175.084,298.000 173.236 C 298.000 172.996,298.180 172.800,298.400 172.800 C 298.665 172.800,298.800 148.434,298.800 100.500 L 298.799 28.200 297.900 27.163 C 296.146 25.141,297.128 25.200,265.026 25.200 L 234.800 25.200 234.800 17.000 L 234.800 8.800 263.800 8.800 C 282.867 8.800,292.800 8.937,292.800 9.200 C 292.800 9.420,293.610 9.600,294.600 9.600 C 295.590 9.600,296.400 9.780,296.400 10.000 C 296.400 10.220,296.940 10.400,297.600 10.400 C 298.260 10.400,298.800 10.580,298.800 10.800 C 298.800 11.020,299.160 11.200,299.600 11.200 C 300.040 11.200,300.400 11.380,300.400 11.600 C 300.400 11.820,300.688 12.000,301.040 12.000 C 301.391 12.000,302.156 12.495,302.740 13.100 C 303.323 13.705,304.295 14.455,304.900 14.768 C 305.505 15.080,306.000 15.575,306.000 15.868 C 306.000 16.160,306.180 16.400,306.400 16.400 C 306.620 16.400,306.800 16.630,306.800 16.912 C 306.800 17.193,307.160 17.683,307.600 18.000 C 308.040 18.317,308.400 18.780,308.400 19.029 C 308.400 19.277,308.850 20.327,309.400 21.362 C 309.950 22.396,310.400 23.683,310.400 24.221 C 310.400 24.760,310.580 25.200,310.800 25.200 C 311.066 25.200,311.200 57.267,311.200 120.600 L 311.200 216.000 297.600 216.000 C 288.800 216.000,284.000 216.141,284.000 216.400 C 284.000 216.620,283.722 216.800,283.382 216.800 C 283.042 216.800,282.322 217.242,281.782 217.782 C 280.097 219.467,280.651 225.189,282.500 225.197 C 282.885 225.199,283.200 225.380,283.200 225.600 C 283.200 225.864,295.234 226.000,318.500 226.000 L 353.800 226.001 354.900 226.947 C 355.505 227.467,356.000 228.187,356.000 228.547 C 356.000 228.906,356.180 229.200,356.400 229.200 C 356.653 229.200,356.800 232.133,356.800 237.199 L 356.800 245.198 341.895 260.099 C 326.486 275.504,324.800 277.519,324.800 280.540 C 324.800 281.123,324.620 281.600,324.400 281.600 C 324.137 281.600,324.000 291.667,324.000 311.000 L 324.000 340.400 252.000 340.400 L 180.000 340.400 180.000 307.787 L 180.000 275.173 178.613 273.787 C 176.520 271.693,173.318 271.734,171.354 273.878 L 170.000 275.356 170.000 310.055 C 170.000 332.755,169.862 344.838,169.600 345.000 C 169.380 345.136,169.200 345.687,169.200 346.224 C 169.200 346.761,169.020 347.200,168.800 347.200 C 168.580 347.200,168.400 347.740,168.400 348.400 C 168.400 349.060,168.220 349.600,168.000 349.600 C 167.780 349.600,167.600 350.140,167.600 350.800 C 167.600 351.460,167.420 352.000,167.200 352.000 C 166.980 352.000,166.800 352.540,166.800 353.200 C 166.800 353.860,166.620 354.400,166.400 354.400 C 166.180 354.400,166.000 354.940,166.000 355.600 C 166.000 356.260,165.820 356.800,165.600 356.800 C 165.380 356.800,165.200 357.340,165.200 358.000 C 165.200 358.660,165.020 359.200,164.800 359.200 C 164.580 359.200,164.400 359.639,164.400 360.176 C 164.400 360.713,164.220 361.264,164.000 361.400 C 163.780 361.536,163.600 362.076,163.600 362.600 C 163.600 363.124,163.420 363.664,163.200 363.800 C 162.980 363.936,162.800 364.476,162.800 365.000 C 162.800 365.524,162.620 366.064,162.400 366.200 C 162.180 366.336,162.000 366.876,162.000 367.400 C 162.000 367.924,161.820 368.464,161.600 368.600 C 161.380 368.736,161.200 369.199,161.200 369.629 C 161.200 370.059,161.037 370.723,160.839 371.105 C 160.246 372.244,158.400 378.393,158.400 379.228 C 158.400 379.652,158.220 380.000,158.000 380.000 C 157.780 380.000,157.600 380.540,157.600 381.200 C 157.600 381.860,157.420 382.400,157.200 382.400 C 156.957 382.400,156.800 384.200,156.800 387.000 C 156.800 389.800,156.957 391.600,157.200 391.600 C 157.420 391.600,157.600 391.960,157.600 392.400 C 157.600 392.840,157.780 393.200,158.000 393.200 C 158.220 393.200,158.400 393.532,158.400 393.939 C 158.400 394.345,158.760 395.093,159.200 395.600 C 159.640 396.107,160.000 396.675,160.000 396.861 C 160.000 397.048,160.182 397.200,160.404 397.200 C 160.626 397.200,161.361 397.729,162.037 398.375 C 162.951 399.249,163.798 399.613,165.334 399.794 C 169.750 400.313,372.923 399.830,373.100 399.300 C 373.192 399.025,373.436 398.800,373.642 398.800 C 374.266 398.800,378.400 394.463,378.400 393.809 C 378.400 393.474,378.580 393.200,378.800 393.200 C 379.020 393.200,379.200 392.660,379.200 392.000 C 379.200 391.340,379.380 390.800,379.600 390.800 C 379.839 390.800,380.000 389.267,380.000 387.000 C 380.000 384.733,379.839 383.200,379.600 383.200 C 379.380 383.200,379.200 382.660,379.200 382.000 C 379.200 381.340,379.020 380.800,378.800 380.800 C 378.580 380.800,378.400 380.260,378.400 379.600 C 378.400 378.940,378.220 378.400,378.000 378.400 C 377.780 378.400,377.600 377.961,377.600 377.424 C 377.600 376.887,377.420 376.336,377.200 376.200 C 376.980 376.064,376.800 375.513,376.800 374.976 C 376.800 374.439,376.620 374.000,376.400 374.000 C 376.180 374.000,376.000 373.460,376.000 372.800 C 376.000 372.140,375.820 371.600,375.600 371.600 C 375.380 371.600,375.200 371.171,375.200 370.646 C 375.200 369.622,374.160 365.847,373.563 364.705 C 373.363 364.323,373.200 363.659,373.200 363.229 C 373.200 362.799,373.020 362.336,372.800 362.200 C 372.580 362.064,372.400 361.524,372.400 361.000 C 372.400 360.476,372.220 359.936,372.000 359.800 C 371.780 359.664,371.600 359.113,371.600 358.576 C 371.600 358.039,371.420 357.600,371.200 357.600 C 370.980 357.600,370.800 357.249,370.800 356.820 C 370.800 356.090,371.179 356.028,376.700 355.860 C 382.999 355.667,385.869 355.335,386.226 354.758 C 386.348 354.561,386.797 354.400,387.224 354.400 C 387.651 354.400,388.000 354.220,388.000 354.000 C 388.000 353.780,388.360 353.600,388.800 353.600 C 389.240 353.600,389.600 353.420,389.600 353.200 C 389.600 352.980,389.830 352.800,390.112 352.800 C 390.393 352.800,390.883 352.440,391.200 352.000 C 391.517 351.560,392.025 351.200,392.328 351.200 C 392.972 351.200,396.400 347.685,396.400 347.025 C 396.400 346.778,396.760 346.317,397.200 346.000 C 397.640 345.683,398.000 345.103,398.000 344.712 C 398.000 344.320,398.180 344.000,398.400 344.000 C 398.620 344.000,398.800 343.655,398.800 343.233 C 398.800 342.812,399.025 342.392,399.300 342.300 C 399.694 342.169,399.800 335.391,399.800 310.200 C 399.800 285.009,399.694 278.231,399.300 278.100 C 399.025 278.008,398.800 277.588,398.800 277.167 C 398.800 276.745,398.620 276.400,398.400 276.400 C 398.180 276.400,398.000 276.080,398.000 275.688 C 398.000 275.297,397.640 274.717,397.200 274.400 C 396.760 274.083,396.400 273.602,396.400 273.332 C 396.400 273.062,395.275 271.750,393.900 270.416 C 386.479 263.218,383.368 260.349,381.876 259.331 C 380.966 258.709,378.561 256.580,376.532 254.600 C 374.503 252.620,371.494 249.740,369.844 248.200 L 366.844 245.400 366.822 236.724 C 366.809 231.395,366.646 227.952,366.400 227.800 C 366.180 227.664,366.000 226.933,366.000 226.176 C 366.000 225.419,365.820 224.800,365.600 224.800 C 365.380 224.800,365.200 224.440,365.200 224.000 C 365.200 223.560,365.020 223.200,364.800 223.200 C 364.580 223.200,364.400 222.925,364.400 222.589 C 364.400 222.254,363.595 221.174,362.611 220.189 C 361.626 219.205,360.546 218.400,360.211 218.400 C 359.875 218.400,359.600 218.220,359.600 218.000 C 359.600 217.780,359.240 217.600,358.800 217.600 C 358.360 217.600,358.000 217.420,358.000 217.200 C 358.000 216.980,357.460 216.800,356.800 216.800 C 356.140 216.800,355.600 216.620,355.600 216.400 C 355.600 216.140,349.667 216.000,338.602 216.000 L 321.603 216.000 321.456 120.300 C 321.316 29.519,321.220 20.800,320.360 20.800 C 320.162 20.800,320.000 20.260,320.000 19.600 C 320.000 18.940,319.820 18.400,319.600 18.400 C 319.380 18.400,319.200 18.040,319.200 17.600 C 319.200 17.160,319.020 16.800,318.800 16.800 C 318.580 16.800,318.400 16.440,318.400 16.000 C 318.400 15.560,318.220 15.200,318.000 15.200 C 317.780 15.200,317.600 14.840,317.600 14.400 C 317.600 13.960,317.420 13.600,317.200 13.600 C 316.980 13.600,316.800 13.357,316.800 13.059 C 316.800 12.762,316.260 11.954,315.600 11.263 C 314.940 10.572,314.400 9.910,314.400 9.790 C 314.400 9.428,311.652 6.800,311.273 6.800 C 311.078 6.800,310.354 6.260,309.663 5.600 C 308.972 4.940,308.226 4.400,308.004 4.400 C 307.782 4.400,307.600 4.220,307.600 4.000 C 307.600 3.780,307.330 3.600,307.000 3.600 C 306.670 3.600,306.400 3.420,306.400 3.200 C 306.400 2.980,306.130 2.800,305.800 2.800 C 305.470 2.800,305.200 2.620,305.200 2.400 C 305.200 2.180,304.851 2.000,304.424 2.000 C 303.997 2.000,303.536 1.820,303.400 1.600 C 303.264 1.380,302.728 1.200,302.210 1.200 C 301.691 1.200,301.192 0.975,301.100 0.700 C 300.942 0.227,105.531 -0.172,100.500 0.290 M225.131 21.168 L 225.000 33.536 223.800 34.568 L 222.600 35.599 198.060 35.600 L 173.520 35.600 172.160 34.240 L 170.800 32.880 170.800 20.840 L 170.800 8.800 198.031 8.800 L 225.261 8.800 225.131 21.168 M27.400 25.086 C 26.258 25.363,24.800 26.811,24.800 27.670 C 24.800 28.071,24.620 28.400,24.400 28.400 C 24.158 28.400,24.000 30.133,24.000 32.800 C 24.000 35.467,24.158 37.200,24.400 37.200 C 24.620 37.200,24.800 37.529,24.800 37.930 C 24.800 38.332,25.217 39.052,25.726 39.530 C 27.487 41.185,33.200 40.456,33.200 38.577 C 33.200 38.260,33.380 38.000,33.600 38.000 C 34.459 38.000,34.089 28.048,33.183 26.776 C 32.095 25.248,29.665 24.538,27.400 25.086 M10.543 41.755 C 9.043 42.588,8.400 43.277,8.400 44.049 C 8.400 44.462,8.220 44.800,8.000 44.800 C 7.780 44.800,7.600 45.520,7.600 46.400 C 7.600 47.280,7.780 48.000,8.000 48.000 C 8.220 48.000,8.400 48.328,8.400 48.728 C 8.400 50.591,10.076 51.200,15.203 51.200 C 18.134 51.200,20.000 51.044,20.000 50.800 C 20.000 50.580,20.287 50.400,20.637 50.400 C 20.988 50.400,21.369 50.040,21.484 49.600 C 21.599 49.160,21.852 48.800,22.047 48.800 C 22.241 48.800,22.400 47.661,22.400 46.270 C 22.400 43.611,22.043 43.007,19.705 41.700 C 18.563 41.062,11.717 41.103,10.543 41.755 M38.600 41.740 C 35.051 43.086,34.515 47.176,37.482 50.278 C 38.304 51.137,38.680 51.200,43.022 51.200 L 47.680 51.200 49.040 49.840 C 51.319 47.561,50.562 42.000,47.973 42.000 C 47.548 42.000,47.200 41.820,47.200 41.600 C 47.200 41.049,40.117 41.165,38.600 41.740 M27.200 53.200 C 27.200 53.420,26.917 53.600,26.571 53.600 C 25.773 53.600,24.800 54.560,24.800 55.348 C 24.800 55.681,24.620 56.064,24.400 56.200 C 24.177 56.338,24.000 58.204,24.000 60.424 C 24.000 62.808,24.160 64.400,24.400 64.400 C 24.620 64.400,24.800 64.678,24.800 65.018 C 24.800 66.511,26.649 67.600,29.182 67.600 C 30.527 67.600,31.600 67.423,31.600 67.200 C 31.600 66.980,31.887 66.800,32.237 66.800 C 32.588 66.800,32.969 66.440,33.084 66.000 C 33.199 65.560,33.452 65.200,33.647 65.200 C 33.841 65.200,34.000 63.032,34.000 60.382 C 34.000 55.309,33.349 53.600,31.418 53.600 C 31.078 53.600,30.800 53.420,30.800 53.200 C 30.800 52.980,29.990 52.800,29.000 52.800 C 28.010 52.800,27.200 52.980,27.200 53.200 M192.200 84.400 C 192.064 84.620,190.703 84.800,189.176 84.800 C 187.592 84.800,186.400 84.972,186.400 85.200 C 186.400 85.420,185.680 85.600,184.800 85.600 C 183.920 85.600,183.200 85.780,183.200 86.000 C 183.200 86.220,182.480 86.400,181.600 86.400 C 180.720 86.400,180.000 86.580,180.000 86.800 C 180.000 87.020,179.460 87.200,178.800 87.200 C 178.140 87.200,177.600 87.380,177.600 87.600 C 177.600 87.820,177.150 88.000,176.600 88.000 C 176.050 88.000,175.600 88.180,175.600 88.400 C 175.600 88.620,175.060 88.800,174.400 88.800 C 173.740 88.800,173.200 88.980,173.200 89.200 C 173.200 89.420,172.840 89.600,172.400 89.600 C 171.960 89.600,171.600 89.780,171.600 90.000 C 171.600 90.220,171.240 90.400,170.800 90.400 C 170.360 90.400,170.000 90.580,170.000 90.800 C 170.000 91.020,169.728 91.200,169.395 91.200 C 169.062 91.200,168.477 91.371,168.095 91.581 C 167.713 91.790,166.680 92.274,165.800 92.656 C 163.695 93.571,158.400 97.117,158.400 97.612 C 158.400 97.825,158.124 98.000,157.787 98.000 C 157.449 98.000,156.543 98.630,155.773 99.400 C 155.003 100.170,154.201 100.800,153.991 100.800 C 153.121 100.800,143.689 110.856,142.364 113.196 C 142.054 113.743,141.485 114.484,141.100 114.843 C 140.715 115.201,140.400 115.748,140.400 116.059 C 140.400 116.369,140.040 116.883,139.600 117.200 C 139.160 117.517,138.800 118.097,138.800 118.488 C 138.800 118.880,138.620 119.200,138.400 119.200 C 138.180 119.200,138.000 119.520,138.000 119.912 C 138.000 120.303,137.640 120.883,137.200 121.200 C 136.760 121.517,136.400 122.097,136.400 122.488 C 136.400 122.880,136.220 123.200,136.000 123.200 C 135.780 123.200,135.600 123.560,135.600 124.000 C 135.600 124.440,135.420 124.800,135.200 124.800 C 134.980 124.800,134.800 125.160,134.800 125.600 C 134.800 126.040,134.620 126.400,134.400 126.400 C 134.180 126.400,134.000 126.749,134.000 127.176 C 134.000 127.603,133.820 128.064,133.600 128.200 C 133.380 128.336,133.200 128.797,133.200 129.224 C 133.200 129.651,133.020 130.000,132.800 130.000 C 132.580 130.000,132.400 130.362,132.400 130.805 C 132.400 131.248,132.220 131.968,132.000 132.405 C 131.780 132.842,131.420 133.558,131.200 133.995 C 130.980 134.432,130.800 135.231,130.800 135.771 C 130.800 136.311,130.620 136.864,130.400 137.000 C 130.180 137.136,130.000 137.777,130.000 138.424 C 130.000 139.071,129.820 139.600,129.600 139.600 C 129.380 139.600,129.200 140.309,129.200 141.176 C 129.200 142.043,129.020 142.864,128.800 143.000 C 128.580 143.136,128.400 144.126,128.400 145.200 C 128.400 146.274,128.220 147.264,128.000 147.400 C 127.750 147.555,127.600 151.596,127.600 158.200 C 127.600 164.804,127.750 168.845,128.000 169.000 C 128.220 169.136,128.400 170.126,128.400 171.200 C 128.400 172.274,128.580 173.264,128.800 173.400 C 129.020 173.536,129.200 174.357,129.200 175.224 C 129.200 176.091,129.360 176.800,129.556 176.800 C 129.752 176.800,130.022 177.430,130.156 178.200 C 130.290 178.970,130.510 180.230,130.644 181.000 C 130.778 181.770,131.048 182.400,131.244 182.400 C 131.440 182.400,131.600 183.019,131.600 183.776 C 131.600 184.533,131.780 185.264,132.000 185.400 C 132.220 185.536,132.400 186.177,132.400 186.824 C 132.400 187.471,132.580 188.000,132.800 188.000 C 133.020 188.000,133.200 188.630,133.200 189.400 C 133.200 190.170,133.380 190.800,133.600 190.800 C 133.820 190.800,134.000 191.419,134.000 192.176 C 134.000 192.933,134.180 193.664,134.400 193.800 C 134.655 193.958,134.800 199.404,134.800 208.824 C 134.800 218.408,134.941 223.600,135.200 223.600 C 135.420 223.600,135.600 223.960,135.600 224.400 C 135.600 224.840,135.780 225.200,136.000 225.200 C 136.220 225.200,136.400 225.476,136.400 225.813 C 136.400 226.609,138.991 229.200,139.787 229.200 C 140.124 229.200,140.400 229.380,140.400 229.600 C 140.400 229.820,140.760 230.000,141.200 230.000 C 141.640 230.000,142.000 230.180,142.000 230.400 C 142.000 230.649,144.333 230.800,148.200 230.800 L 154.400 230.800 154.400 232.000 C 154.400 232.660,154.580 233.200,154.800 233.200 C 155.020 233.200,155.200 233.483,155.200 233.829 C 155.200 234.174,155.432 234.669,155.715 234.929 C 157.250 236.332,157.913 236.400,170.008 236.400 L 182.027 236.400 183.413 235.013 L 184.800 233.627 184.800 208.013 C 184.800 191.204,184.663 182.400,184.400 182.400 C 184.180 182.400,184.000 182.113,184.000 181.763 C 184.000 181.412,183.640 181.031,183.200 180.916 C 182.760 180.801,182.400 180.548,182.400 180.353 C 182.400 180.156,176.817 180.000,169.782 180.000 L 157.164 180.000 156.182 180.982 C 155.642 181.522,155.200 182.242,155.200 182.582 C 155.200 182.922,155.020 183.200,154.800 183.200 C 154.580 183.200,154.400 183.560,154.400 184.000 C 154.400 184.756,154.133 184.800,149.600 184.800 C 146.667 184.800,144.800 184.956,144.800 185.200 C 144.800 185.420,144.260 185.600,143.600 185.600 C 142.533 185.600,142.400 185.467,142.400 184.400 C 142.400 183.740,142.220 183.200,142.000 183.200 C 141.780 183.200,141.600 182.807,141.600 182.326 C 141.600 181.168,140.465 176.386,139.982 175.505 C 139.772 175.123,139.600 174.279,139.600 173.629 C 139.600 172.979,139.420 172.336,139.200 172.200 C 138.980 172.064,138.800 171.153,138.800 170.176 C 138.800 169.199,138.620 168.400,138.400 168.400 C 138.165 168.400,138.000 167.008,138.000 165.024 C 138.000 163.167,137.820 161.536,137.600 161.400 C 137.380 161.264,137.200 159.824,137.200 158.200 C 137.200 156.576,137.380 155.136,137.600 155.000 C 137.820 154.864,138.000 153.233,138.000 151.376 C 138.000 149.392,138.165 148.000,138.400 148.000 C 138.620 148.000,138.800 147.100,138.800 146.000 C 138.800 144.900,138.980 144.000,139.200 144.000 C 139.420 144.000,139.600 143.458,139.600 142.795 C 139.600 142.132,139.763 141.277,139.963 140.895 C 140.442 139.978,141.600 136.059,141.600 135.354 C 141.600 135.049,141.780 134.800,142.000 134.800 C 142.220 134.800,142.400 134.260,142.400 133.600 C 142.400 132.940,142.580 132.400,142.800 132.400 C 143.020 132.400,143.200 132.040,143.200 131.600 C 143.200 131.160,143.380 130.800,143.600 130.800 C 143.820 130.800,144.000 130.440,144.000 130.000 C 144.000 129.560,144.180 129.200,144.400 129.200 C 144.620 129.200,144.800 128.840,144.800 128.400 C 144.800 127.960,144.980 127.600,145.200 127.600 C 145.420 127.600,145.600 127.306,145.600 126.947 C 145.600 126.588,145.916 126.003,146.303 125.647 C 146.689 125.291,147.274 124.463,147.603 123.807 C 147.931 123.151,148.695 122.089,149.300 121.448 C 149.905 120.806,150.400 120.104,150.400 119.888 C 150.400 119.671,150.724 119.203,151.119 118.847 C 151.514 118.491,152.277 117.570,152.814 116.800 C 153.351 116.030,154.693 114.466,155.795 113.324 C 156.898 112.182,158.250 110.741,158.800 110.122 C 159.350 109.503,160.250 108.765,160.800 108.483 C 161.350 108.200,162.401 107.443,163.137 106.800 C 163.872 106.157,164.817 105.522,165.237 105.388 C 165.656 105.255,166.000 105.000,166.000 104.822 C 166.000 104.643,166.540 104.273,167.200 104.000 C 167.860 103.727,168.400 103.345,168.400 103.151 C 168.400 102.958,168.760 102.800,169.200 102.800 C 169.640 102.800,170.000 102.620,170.000 102.400 C 170.000 102.180,170.255 102.000,170.567 102.000 C 170.878 102.000,171.193 101.865,171.267 101.700 C 171.459 101.268,174.772 99.600,175.438 99.600 C 175.747 99.600,176.000 99.420,176.000 99.200 C 176.000 98.980,176.360 98.800,176.800 98.800 C 177.240 98.800,177.600 98.620,177.600 98.400 C 177.600 98.180,178.140 98.000,178.800 98.000 C 179.460 98.000,180.000 97.820,180.000 97.600 C 180.000 97.380,180.349 97.200,180.776 97.200 C 181.203 97.200,181.664 97.020,181.800 96.800 C 181.936 96.580,182.667 96.400,183.424 96.400 C 184.181 96.400,184.800 96.220,184.800 96.000 C 184.800 95.780,185.520 95.600,186.400 95.600 C 187.280 95.600,188.000 95.420,188.000 95.200 C 188.000 94.980,188.990 94.800,190.200 94.800 C 191.410 94.800,192.400 94.620,192.400 94.400 C 192.400 94.147,195.200 94.000,200.000 94.000 C 204.800 94.000,207.600 94.147,207.600 94.400 C 207.600 94.620,208.590 94.800,209.800 94.800 C 211.010 94.800,212.000 94.980,212.000 95.200 C 212.000 95.420,212.720 95.600,213.600 95.600 C 214.480 95.600,215.200 95.780,215.200 96.000 C 215.200 96.220,215.819 96.400,216.576 96.400 C 217.333 96.400,218.064 96.580,218.200 96.800 C 218.336 97.020,218.797 97.200,219.224 97.200 C 219.651 97.200,220.000 97.380,220.000 97.600 C 220.000 97.820,220.540 98.000,221.200 98.000 C 221.860 98.000,222.400 98.180,222.400 98.400 C 222.400 98.620,222.760 98.800,223.200 98.800 C 223.640 98.800,224.000 98.980,224.000 99.200 C 224.000 99.420,224.253 99.600,224.562 99.600 C 225.228 99.600,228.541 101.268,228.733 101.700 C 228.807 101.865,229.122 102.000,229.433 102.000 C 229.745 102.000,230.000 102.180,230.000 102.400 C 230.000 102.620,230.360 102.800,230.800 102.800 C 231.240 102.800,231.600 102.950,231.600 103.132 C 231.600 103.315,232.095 103.720,232.700 104.032 C 233.305 104.345,234.149 104.915,234.575 105.300 C 235.002 105.685,235.496 106.000,235.672 106.000 C 235.969 106.000,237.381 107.100,238.625 108.300 C 238.910 108.575,239.381 108.805,239.671 108.812 C 239.962 108.819,240.650 109.372,241.200 110.042 C 241.750 110.712,243.102 112.192,244.205 113.330 C 245.307 114.469,246.649 116.030,247.186 116.800 C 247.723 117.570,248.486 118.491,248.881 118.847 C 249.276 119.203,249.600 119.698,249.600 119.947 C 249.600 120.196,249.780 120.400,250.000 120.400 C 250.220 120.400,250.400 120.604,250.400 120.853 C 250.400 121.102,250.716 121.597,251.103 121.953 C 251.489 122.309,252.073 123.140,252.400 123.800 C 252.727 124.460,253.311 125.291,253.697 125.647 C 254.084 126.003,254.400 126.588,254.400 126.947 C 254.400 127.306,254.580 127.600,254.800 127.600 C 255.020 127.600,255.200 127.960,255.200 128.400 C 255.200 128.840,255.380 129.200,255.600 129.200 C 255.820 129.200,256.000 129.560,256.000 130.000 C 256.000 130.440,256.180 130.800,256.400 130.800 C 256.620 130.800,256.800 131.160,256.800 131.600 C 256.800 132.040,256.980 132.400,257.200 132.400 C 257.420 132.400,257.600 132.940,257.600 133.600 C 257.600 134.260,257.780 134.800,258.000 134.800 C 258.220 134.800,258.400 135.049,258.400 135.354 C 258.400 136.059,259.558 139.978,260.037 140.895 C 260.237 141.277,260.400 142.132,260.400 142.795 C 260.400 143.458,260.580 144.000,260.800 144.000 C 261.020 144.000,261.200 144.900,261.200 146.000 C 261.200 147.100,261.380 148.000,261.600 148.000 C 261.837 148.000,262.000 149.459,262.000 151.576 C 262.000 153.543,262.180 155.264,262.400 155.400 C 262.620 155.536,262.800 156.796,262.800 158.200 C 262.800 159.604,262.620 160.864,262.400 161.000 C 262.180 161.136,262.000 162.857,262.000 164.824 C 262.000 166.941,261.837 168.400,261.600 168.400 C 261.380 168.400,261.200 169.199,261.200 170.176 C 261.200 171.153,261.020 172.064,260.800 172.200 C 260.580 172.336,260.400 172.979,260.400 173.629 C 260.400 174.279,260.228 175.123,260.018 175.505 C 259.535 176.386,258.400 181.168,258.400 182.326 C 258.400 182.807,258.220 183.200,258.000 183.200 C 257.780 183.200,257.600 183.740,257.600 184.400 C 257.600 185.467,257.467 185.600,256.400 185.600 C 255.740 185.600,255.200 185.420,255.200 185.200 C 255.200 184.956,253.333 184.800,250.400 184.800 C 245.867 184.800,245.600 184.756,245.600 184.000 C 245.600 183.560,245.420 183.200,245.200 183.200 C 244.980 183.200,244.800 182.922,244.800 182.582 C 244.800 182.242,244.358 181.522,243.818 180.982 L 242.836 180.000 230.218 180.000 C 223.183 180.000,217.600 180.156,217.600 180.353 C 217.600 180.548,217.240 180.801,216.800 180.916 C 216.360 181.031,216.000 181.412,216.000 181.763 C 216.000 182.113,215.820 182.400,215.600 182.400 C 215.337 182.400,215.200 191.204,215.200 208.013 L 215.200 233.627 216.587 235.013 L 217.973 236.400 229.992 236.400 C 242.087 236.400,242.750 236.332,244.285 234.929 C 244.568 234.669,244.800 234.174,244.800 233.829 C 244.800 233.483,244.980 233.200,245.200 233.200 C 245.420 233.200,245.600 232.660,245.600 232.000 L 245.600 230.800 251.800 230.800 C 255.667 230.800,258.000 230.649,258.000 230.400 C 258.000 230.180,258.360 230.000,258.800 230.000 C 259.240 230.000,259.600 229.820,259.600 229.600 C 259.600 229.380,259.876 229.200,260.213 229.200 C 261.009 229.200,263.600 226.609,263.600 225.813 C 263.600 225.476,263.780 225.200,264.000 225.200 C 264.220 225.200,264.400 224.840,264.400 224.400 C 264.400 223.960,264.580 223.600,264.800 223.600 C 265.059 223.600,265.200 218.408,265.200 208.824 C 265.200 199.404,265.345 193.958,265.600 193.800 C 265.820 193.664,266.000 192.933,266.000 192.176 C 266.000 191.419,266.180 190.800,266.400 190.800 C 266.620 190.800,266.800 190.170,266.800 189.400 C 266.800 188.630,266.980 188.000,267.200 188.000 C 267.420 188.000,267.600 187.471,267.600 186.824 C 267.600 186.177,267.780 185.536,268.000 185.400 C 268.220 185.264,268.400 184.533,268.400 183.776 C 268.400 183.019,268.580 182.400,268.800 182.400 C 269.020 182.400,269.200 181.871,269.200 181.224 C 269.200 180.577,269.380 179.936,269.600 179.800 C 269.820 179.664,270.000 178.933,270.000 178.176 C 270.000 177.419,270.180 176.800,270.400 176.800 C 270.620 176.800,270.800 176.091,270.800 175.224 C 270.800 174.357,270.980 173.536,271.200 173.400 C 271.420 173.264,271.600 172.299,271.600 171.256 C 271.600 170.213,271.768 169.189,271.973 168.980 C 272.179 168.771,272.444 166.890,272.563 164.800 C 272.681 162.710,272.889 159.675,273.024 158.055 C 273.183 156.149,273.116 154.956,272.835 154.675 C 272.578 154.418,272.400 152.559,272.400 150.144 C 272.400 147.844,272.225 145.939,272.000 145.800 C 271.780 145.664,271.600 144.753,271.600 143.776 C 271.600 142.799,271.438 142.000,271.240 142.000 C 271.042 142.000,270.781 141.235,270.659 140.300 C 270.220 136.937,269.906 135.600,269.556 135.600 C 269.360 135.600,269.200 135.060,269.200 134.400 C 269.200 133.740,269.020 133.200,268.800 133.200 C 268.580 133.200,268.400 132.660,268.400 132.000 C 268.400 131.340,268.220 130.800,268.000 130.800 C 267.780 130.800,267.600 130.440,267.600 130.000 C 267.600 129.560,267.420 129.200,267.200 129.200 C 266.980 129.200,266.800 128.876,266.800 128.480 C 266.800 127.586,265.906 125.607,265.500 125.603 C 265.335 125.601,265.200 125.240,265.200 124.800 C 265.200 124.360,265.020 124.000,264.800 124.000 C 264.580 124.000,264.400 123.640,264.400 123.200 C 264.400 122.760,264.220 122.400,264.000 122.400 C 263.780 122.400,263.600 122.040,263.600 121.600 C 263.600 121.160,263.420 120.800,263.200 120.800 C 262.980 120.800,262.800 120.564,262.800 120.275 C 262.800 119.987,262.440 119.364,262.000 118.892 C 261.560 118.420,261.200 117.796,261.200 117.505 C 261.200 117.214,260.840 116.717,260.400 116.400 C 259.960 116.083,259.600 115.569,259.600 115.259 C 259.600 114.948,259.267 114.403,258.859 114.047 C 258.452 113.691,257.833 112.846,257.485 112.170 C 257.137 111.493,256.120 110.279,255.226 109.471 C 254.332 108.663,253.600 107.846,253.600 107.655 C 253.600 107.140,249.340 102.800,248.835 102.800 C 248.596 102.800,248.400 102.620,248.400 102.400 C 248.400 102.180,248.206 102.000,247.969 102.000 C 247.731 102.000,246.846 101.280,246.000 100.400 C 245.154 99.520,244.295 98.800,244.091 98.800 C 243.886 98.800,243.154 98.260,242.463 97.600 C 241.772 96.940,241.054 96.400,240.866 96.400 C 240.678 96.400,240.198 96.040,239.800 95.600 C 239.402 95.160,238.946 94.800,238.786 94.800 C 238.627 94.800,237.451 94.170,236.172 93.400 C 234.893 92.630,233.521 92.000,233.124 92.000 C 232.726 92.000,232.400 91.820,232.400 91.600 C 232.400 91.380,232.040 91.200,231.600 91.200 C 231.160 91.200,230.800 91.020,230.800 90.800 C 230.800 90.580,230.440 90.400,230.000 90.400 C 229.560 90.400,229.200 90.220,229.200 90.000 C 229.200 89.780,228.660 89.600,228.000 89.600 C 227.340 89.600,226.800 89.420,226.800 89.200 C 226.800 88.980,226.440 88.800,226.000 88.800 C 225.560 88.800,225.200 88.620,225.200 88.400 C 225.200 88.180,224.660 88.000,224.000 88.000 C 223.340 88.000,222.800 87.820,222.800 87.600 C 222.800 87.380,222.271 87.200,221.624 87.200 C 220.977 87.200,220.336 87.020,220.200 86.800 C 220.064 86.580,219.434 86.400,218.800 86.400 C 218.166 86.400,217.536 86.220,217.400 86.000 C 217.264 85.780,216.353 85.600,215.376 85.600 C 214.399 85.600,213.600 85.420,213.600 85.200 C 213.600 84.971,212.400 84.800,210.800 84.800 C 209.200 84.800,208.000 84.629,208.000 84.400 C 208.000 84.147,205.141 84.000,200.224 84.000 C 195.471 84.000,192.351 84.156,192.200 84.400 M80.100 109.281 C 79.165 109.760,78.400 110.388,78.400 110.676 C 78.400 110.964,78.259 111.200,78.087 111.200 C 77.434 111.200,76.652 114.871,77.139 115.651 C 77.393 116.057,77.600 116.734,77.600 117.155 C 77.600 119.138,80.262 120.800,83.440 120.800 C 85.068 120.800,86.400 120.663,86.400 120.495 C 86.400 120.327,86.805 120.012,87.300 119.795 C 87.795 119.578,88.378 118.995,88.595 118.500 C 88.812 118.005,89.127 117.600,89.295 117.600 C 89.463 117.600,89.600 116.277,89.600 114.659 C 89.600 109.311,85.061 106.742,80.100 109.281 M38.800 135.200 C 38.800 135.420,37.900 135.600,36.800 135.600 C 35.700 135.600,34.800 135.780,34.800 136.000 C 34.800 136.220,34.440 136.400,34.000 136.400 C 33.560 136.400,33.200 136.580,33.200 136.800 C 33.200 137.020,32.925 137.200,32.589 137.200 C 31.111 137.200,26.800 142.808,26.800 144.731 C 26.800 145.183,26.639 145.652,26.442 145.774 C 26.245 145.895,25.988 146.671,25.870 147.497 C 24.841 154.697,24.603 156.000,24.322 156.000 C 24.145 156.000,24.000 156.709,24.000 157.576 C 24.000 158.443,23.820 159.264,23.600 159.400 C 23.380 159.536,23.200 160.357,23.200 161.224 C 23.200 162.091,23.020 162.800,22.800 162.800 C 22.580 162.800,22.400 163.509,22.400 164.376 C 22.400 165.243,22.220 166.064,22.000 166.200 C 21.780 166.336,21.600 167.247,21.600 168.224 C 21.600 169.201,21.420 170.000,21.200 170.000 C 20.980 170.000,20.800 170.720,20.800 171.600 C 20.800 172.480,20.620 173.200,20.400 173.200 C 20.180 173.200,20.000 174.010,20.000 175.000 C 20.000 175.990,19.820 176.800,19.600 176.800 C 19.380 176.800,19.200 177.520,19.200 178.400 C 19.200 179.280,19.020 180.000,18.800 180.000 C 18.580 180.000,18.400 180.799,18.400 181.776 C 18.400 182.753,18.220 183.664,18.000 183.800 C 17.780 183.936,17.600 184.757,17.600 185.624 C 17.600 186.491,17.420 187.200,17.200 187.200 C 16.980 187.200,16.800 187.909,16.800 188.776 C 16.800 189.643,16.620 190.464,16.400 190.600 C 16.180 190.736,16.000 191.469,16.000 192.229 C 16.000 194.198,14.662 196.400,13.466 196.400 C 12.607 196.400,9.557 198.053,8.485 199.100 C 7.978 199.595,7.411 200.000,7.224 200.000 C 6.745 200.000,4.400 202.242,4.400 202.701 C 4.400 202.910,3.860 203.646,3.200 204.337 C 2.540 205.028,2.000 205.864,2.000 206.196 C 2.000 206.528,1.820 206.800,1.600 206.800 C 1.380 206.800,1.200 207.145,1.200 207.567 C 1.200 207.988,0.975 208.408,0.700 208.500 C -0.034 208.745,-0.034 326.526,0.700 327.260 C 0.975 327.535,1.200 328.084,1.200 328.480 C 1.200 328.876,1.380 329.200,1.600 329.200 C 1.820 329.200,2.000 329.443,2.000 329.741 C 2.000 330.038,2.495 330.806,3.100 331.448 C 3.705 332.089,4.445 333.086,4.744 333.663 C 5.043 334.240,5.760 334.957,6.337 335.256 C 6.914 335.555,7.866 336.252,8.452 336.804 C 9.748 338.025,12.624 339.600,13.558 339.600 C 13.933 339.600,14.411 339.763,14.620 339.961 C 15.472 340.772,20.706 340.900,59.300 341.056 C 83.377 341.153,99.600 341.366,99.600 341.586 C 99.600 341.788,99.420 342.064,99.200 342.200 C 98.980 342.336,98.800 343.146,98.800 344.000 C 98.800 344.854,98.620 345.664,98.400 345.800 C 98.180 345.936,98.000 346.656,98.000 347.400 C 98.000 348.144,97.820 348.864,97.600 349.000 C 97.380 349.136,97.200 350.047,97.200 351.024 C 97.200 352.001,97.020 352.800,96.800 352.800 C 96.580 352.800,96.400 353.509,96.400 354.376 C 96.400 355.243,96.220 356.064,96.000 356.200 C 95.780 356.336,95.600 357.146,95.600 358.000 C 95.600 358.854,95.420 359.664,95.200 359.800 C 94.980 359.936,94.800 360.656,94.800 361.400 C 94.800 362.144,94.620 362.864,94.400 363.000 C 94.180 363.136,94.000 363.921,94.000 364.744 C 94.000 365.567,93.838 366.411,93.641 366.620 C 93.444 366.829,93.186 367.720,93.070 368.600 C 92.953 369.480,92.569 371.550,92.215 373.200 C 91.862 374.850,91.466 377.055,91.336 378.100 C 91.205 379.145,90.941 380.000,90.749 380.000 C 90.557 380.000,90.400 380.900,90.400 382.000 C 90.400 383.100,90.220 384.000,90.000 384.000 C 89.780 384.000,89.600 384.720,89.600 385.600 C 89.600 386.480,89.420 387.200,89.200 387.200 C 88.980 387.200,88.800 387.560,88.800 388.000 C 88.800 388.440,88.641 388.800,88.447 388.800 C 88.252 388.800,87.999 389.160,87.884 389.600 C 87.761 390.069,87.338 390.400,86.861 390.400 C 86.413 390.400,85.936 390.580,85.800 390.800 C 85.640 391.059,77.463 391.200,62.576 391.200 C 47.525 391.200,39.600 391.062,39.600 390.800 C 39.600 390.580,39.306 390.400,38.947 390.400 C 37.893 390.400,36.401 388.349,36.400 386.900 C 36.400 386.185,36.220 385.600,36.000 385.600 C 35.780 385.600,35.600 384.801,35.600 383.824 C 35.600 382.847,35.420 381.936,35.200 381.800 C 34.980 381.664,34.800 380.843,34.800 379.976 C 34.800 379.109,34.620 378.400,34.400 378.400 C 34.180 378.400,34.000 377.691,34.000 376.824 C 34.000 375.957,33.820 375.136,33.600 375.000 C 33.380 374.864,33.200 374.043,33.200 373.176 C 33.200 372.309,33.020 371.600,32.800 371.600 C 32.580 371.600,32.400 370.891,32.400 370.024 C 32.400 369.157,32.220 368.336,32.000 368.200 C 31.780 368.064,31.600 367.153,31.600 366.176 C 31.600 365.199,31.420 364.400,31.200 364.400 C 30.980 364.400,30.800 364.122,30.800 363.783 C 30.800 363.000,29.580 361.682,28.187 360.959 C 26.941 360.313,24.800 360.212,24.800 360.800 C 24.800 361.020,24.522 361.200,24.182 361.200 C 22.504 361.200,21.600 363.014,21.600 366.382 C 21.600 368.261,21.766 369.600,22.000 369.600 C 22.220 369.600,22.400 370.309,22.400 371.176 C 22.400 372.043,22.580 372.864,22.800 373.000 C 23.020 373.136,23.200 373.856,23.200 374.600 C 23.200 375.344,23.380 376.064,23.600 376.200 C 23.820 376.336,24.000 377.247,24.000 378.224 C 24.000 379.201,24.141 380.000,24.314 380.000 C 24.587 380.000,25.080 382.568,25.870 388.103 C 25.988 388.929,26.245 389.705,26.442 389.826 C 26.639 389.948,26.800 390.577,26.800 391.224 C 26.800 391.871,26.980 392.400,27.200 392.400 C 27.420 392.400,27.600 392.760,27.600 393.200 C 27.600 393.640,27.780 394.000,28.000 394.000 C 28.220 394.000,28.400 394.275,28.400 394.611 C 28.400 395.386,31.787 398.800,32.556 398.800 C 32.874 398.800,33.208 399.025,33.300 399.300 C 33.431 399.694,39.669 399.800,62.700 399.800 L 91.933 399.800 92.713 398.900 C 93.143 398.405,93.706 398.000,93.965 398.000 C 94.649 398.000,96.400 396.143,96.400 395.418 C 96.400 395.078,96.535 394.799,96.700 394.797 C 97.059 394.793,98.000 392.856,98.000 392.120 C 98.000 391.834,98.180 391.600,98.400 391.600 C 98.620 391.600,98.800 390.970,98.800 390.200 C 98.800 389.430,98.980 388.800,99.200 388.800 C 99.420 388.800,99.600 388.091,99.600 387.224 C 99.600 386.357,99.780 385.536,100.000 385.400 C 100.220 385.264,100.400 384.353,100.400 383.376 C 100.400 382.399,100.580 381.600,100.800 381.600 C 101.020 381.600,101.200 380.880,101.200 380.000 C 101.200 379.120,101.380 378.400,101.600 378.400 C 101.820 378.400,102.000 377.500,102.000 376.400 C 102.000 375.300,102.180 374.400,102.400 374.400 C 102.620 374.400,102.800 373.781,102.800 373.024 C 102.800 372.267,102.980 371.536,103.200 371.400 C 103.420 371.264,103.600 370.454,103.600 369.600 C 103.600 368.746,103.780 367.936,104.000 367.800 C 104.220 367.664,104.400 366.843,104.400 365.976 C 104.400 365.109,104.562 364.400,104.760 364.400 C 104.958 364.400,105.228 363.590,105.360 362.600 C 105.492 361.610,105.708 359.990,105.840 359.000 C 105.972 358.010,106.219 357.200,106.388 357.200 C 106.557 357.200,106.802 356.435,106.932 355.500 C 107.061 354.565,107.463 352.360,107.826 350.600 C 108.188 348.840,108.574 346.680,108.683 345.800 C 108.792 344.920,109.044 344.029,109.241 343.820 C 109.438 343.611,109.600 342.821,109.600 342.064 C 109.600 340.544,110.454 339.633,111.900 339.613 C 112.395 339.606,112.800 339.420,112.800 339.200 C 112.800 338.980,113.160 338.800,113.600 338.800 C 114.040 338.800,114.400 338.620,114.400 338.400 C 114.400 338.180,114.760 338.000,115.200 338.000 C 115.640 338.000,116.000 337.820,116.000 337.600 C 116.000 337.380,116.260 337.200,116.578 337.200 C 117.330 337.200,122.400 332.130,122.400 331.378 C 122.400 331.060,122.544 330.800,122.720 330.800 C 123.267 330.800,124.813 327.218,125.067 325.363 C 125.200 324.393,125.464 323.600,125.654 323.600 C 125.844 323.600,126.000 314.870,126.000 304.200 L 126.000 284.800 133.253 284.800 L 140.507 284.800 141.453 283.700 L 142.399 282.600 142.400 267.882 L 142.400 253.164 141.418 252.182 C 140.448 251.212,140.349 251.200,133.218 251.200 L 126.000 251.200 126.000 231.824 C 126.000 221.167,125.844 212.351,125.654 212.233 C 125.464 212.116,125.216 211.332,125.103 210.492 C 124.910 209.051,124.076 207.021,122.776 204.829 C 121.993 203.509,117.318 198.800,116.791 198.800 C 116.557 198.800,115.980 198.440,115.508 198.000 C 115.036 197.560,114.334 197.200,113.948 197.200 C 113.563 197.200,113.136 197.020,113.000 196.800 C 112.864 196.580,112.403 196.400,111.976 196.400 C 111.549 196.400,111.200 196.220,111.200 196.000 C 111.200 195.780,110.300 195.600,109.200 195.600 C 108.100 195.600,107.200 195.420,107.200 195.200 C 107.200 194.936,93.400 194.800,66.600 194.800 L 26.000 194.800 26.000 193.424 C 26.000 192.667,26.180 191.936,26.400 191.800 C 26.620 191.664,26.800 190.933,26.800 190.176 C 26.800 189.419,26.980 188.800,27.200 188.800 C 27.420 188.800,27.600 188.091,27.600 187.224 C 27.600 186.357,27.780 185.536,28.000 185.400 C 28.220 185.264,28.400 184.353,28.400 183.376 C 28.400 182.399,28.580 181.600,28.800 181.600 C 29.020 181.600,29.200 180.880,29.200 180.000 C 29.200 179.120,29.380 178.400,29.600 178.400 C 29.820 178.400,30.000 177.500,30.000 176.400 C 30.000 175.300,30.180 174.400,30.400 174.400 C 30.620 174.400,30.800 173.781,30.800 173.024 C 30.800 172.267,30.980 171.536,31.200 171.400 C 31.420 171.264,31.600 170.454,31.600 169.600 C 31.600 168.746,31.780 167.936,32.000 167.800 C 32.220 167.664,32.400 166.843,32.400 165.976 C 32.400 165.109,32.580 164.400,32.800 164.400 C 33.020 164.400,33.200 163.691,33.200 162.824 C 33.200 161.957,33.380 161.136,33.600 161.000 C 33.820 160.864,34.000 159.953,34.000 158.976 C 34.000 157.999,34.180 157.200,34.400 157.200 C 34.620 157.200,34.800 156.581,34.800 155.824 C 34.800 155.067,34.980 154.336,35.200 154.200 C 35.420 154.064,35.600 153.153,35.600 152.176 C 35.600 151.199,35.780 150.400,36.000 150.400 C 36.220 150.400,36.400 149.762,36.400 148.982 C 36.400 147.585,37.798 145.600,38.782 145.600 C 39.012 145.600,39.200 145.420,39.200 145.200 C 39.200 144.938,47.333 144.800,62.800 144.800 C 78.267 144.800,86.400 144.938,86.400 145.200 C 86.400 145.420,86.695 145.600,87.056 145.600 C 87.903 145.600,88.771 146.753,88.787 147.900 C 88.794 148.395,88.980 148.800,89.200 148.800 C 89.420 148.800,89.600 149.520,89.600 150.400 C 89.600 151.280,89.780 152.000,90.000 152.000 C 90.220 152.000,90.400 152.722,90.400 153.605 C 90.400 154.488,90.565 155.523,90.768 155.905 C 90.970 156.287,91.433 158.400,91.797 160.600 C 92.162 162.800,92.626 165.013,92.830 165.519 C 93.033 166.024,93.200 166.959,93.200 167.595 C 93.200 168.232,93.380 168.864,93.600 169.000 C 93.820 169.136,94.000 169.946,94.000 170.800 C 94.000 171.654,94.180 172.464,94.400 172.600 C 94.620 172.736,94.800 173.377,94.800 174.024 C 94.800 174.671,94.980 175.200,95.200 175.200 C 95.420 175.200,95.600 175.487,95.600 175.837 C 95.600 176.188,95.960 176.569,96.400 176.684 C 96.840 176.799,97.200 177.052,97.200 177.247 C 97.200 178.093,102.408 177.628,103.327 176.700 C 104.505 175.508,105.463 172.603,104.905 171.913 C 104.519 171.436,104.342 170.548,103.747 166.100 C 103.622 165.165,103.358 164.400,103.160 164.400 C 102.962 164.400,102.800 163.680,102.800 162.800 C 102.800 161.920,102.620 161.200,102.400 161.200 C 102.180 161.200,102.000 160.390,102.000 159.400 C 102.000 158.410,101.820 157.600,101.600 157.600 C 101.380 157.600,101.200 156.880,101.200 156.000 C 101.200 155.120,101.020 154.400,100.800 154.400 C 100.580 154.400,100.400 153.601,100.400 152.624 C 100.400 151.647,100.220 150.736,100.000 150.600 C 99.780 150.464,99.600 149.643,99.600 148.776 C 99.600 147.909,99.420 147.200,99.200 147.200 C 98.980 147.200,98.800 146.480,98.800 145.600 C 98.800 144.720,98.620 144.000,98.400 144.000 C 98.180 144.000,98.000 143.590,98.000 143.088 C 98.000 142.587,97.640 141.917,97.200 141.600 C 96.760 141.283,96.400 140.785,96.400 140.494 C 96.400 139.807,94.593 138.000,93.906 138.000 C 93.615 138.000,93.117 137.640,92.800 137.200 C 92.483 136.760,91.903 136.400,91.512 136.400 C 91.120 136.400,90.800 136.220,90.800 136.000 C 90.800 135.780,89.911 135.600,88.824 135.600 C 87.737 135.600,86.736 135.420,86.600 135.200 C 86.440 134.941,77.996 134.800,62.576 134.800 C 46.992 134.800,38.800 134.938,38.800 135.200 M370.000 135.200 C 370.000 135.420,369.526 135.600,368.947 135.600 C 366.666 135.600,366.001 137.204,366.000 142.705 C 366.000 149.525,366.534 150.400,370.702 150.400 C 373.615 150.400,375.200 149.510,375.200 147.874 C 375.200 147.503,375.380 147.200,375.600 147.200 C 375.841 147.200,376.000 145.533,376.000 143.000 C 376.000 140.467,375.841 138.800,375.600 138.800 C 375.380 138.800,375.200 138.468,375.200 138.061 C 375.200 137.008,373.857 135.600,372.853 135.600 C 372.384 135.600,372.000 135.420,372.000 135.200 C 372.000 134.980,371.550 134.800,371.000 134.800 C 370.450 134.800,370.000 134.980,370.000 135.200 M353.600 151.600 C 353.600 151.820,353.137 152.000,352.571 152.000 C 350.722 152.000,349.600 153.802,349.600 156.774 C 349.600 157.888,349.759 158.800,349.953 158.800 C 350.148 158.800,350.401 159.160,350.516 159.600 C 350.631 160.040,351.012 160.400,351.363 160.400 C 351.713 160.400,352.000 160.580,352.000 160.800 C 352.000 161.752,361.562 161.277,362.518 160.278 C 364.239 158.478,365.267 154.400,364.000 154.400 C 363.780 154.400,363.600 154.105,363.600 153.744 C 363.600 152.897,362.447 152.029,361.300 152.013 C 360.805 152.006,360.400 151.820,360.400 151.600 C 360.400 151.365,359.000 151.200,357.000 151.200 C 355.000 151.200,353.600 151.365,353.600 151.600 M381.000 151.600 C 380.864 151.820,380.485 152.000,380.158 152.000 C 379.831 152.000,379.122 152.442,378.582 152.982 C 376.897 154.667,377.451 160.389,379.300 160.397 C 379.685 160.399,380.000 160.580,380.000 160.800 C 380.000 161.044,381.866 161.200,384.797 161.200 C 389.924 161.200,391.600 160.591,391.600 158.728 C 391.600 158.328,391.780 158.000,392.000 158.000 C 392.220 158.000,392.400 157.370,392.400 156.600 C 392.400 155.830,392.220 155.200,392.000 155.200 C 391.780 155.200,391.600 154.868,391.600 154.461 C 391.600 153.514,390.294 152.000,389.477 152.000 C 389.130 152.000,388.736 151.820,388.600 151.600 C 388.464 151.380,386.754 151.200,384.800 151.200 C 382.846 151.200,381.136 151.380,381.000 151.600 M369.200 163.200 C 369.200 163.420,368.922 163.600,368.582 163.600 C 366.651 163.600,366.000 165.309,366.000 170.382 C 366.000 173.032,366.159 175.200,366.353 175.200 C 366.548 175.200,366.801 175.560,366.916 176.000 C 367.031 176.440,367.412 176.800,367.763 176.800 C 368.113 176.800,368.400 176.980,368.400 177.200 C 368.400 177.422,369.466 177.600,370.797 177.600 C 373.394 177.600,375.200 176.586,375.200 175.128 C 375.200 174.728,375.380 174.400,375.600 174.400 C 375.840 174.400,376.000 172.800,376.000 170.400 C 376.000 168.000,375.840 166.400,375.600 166.400 C 375.380 166.400,375.200 166.068,375.200 165.662 C 375.200 164.859,374.020 163.600,373.269 163.600 C 373.011 163.600,372.800 163.420,372.800 163.200 C 372.800 162.980,371.990 162.800,371.000 162.800 C 370.010 162.800,369.200 162.980,369.200 163.200 M291.200 186.000 C 291.200 186.220,290.917 186.400,290.571 186.400 C 289.880 186.400,289.263 186.969,288.500 188.310 C 287.904 189.358,287.820 194.800,288.400 194.800 C 288.620 194.800,288.800 195.087,288.800 195.437 C 288.800 195.788,289.160 196.169,289.600 196.284 C 290.040 196.399,290.400 196.652,290.400 196.847 C 290.400 197.041,290.760 197.200,291.200 197.200 C 291.640 197.200,292.000 197.380,292.000 197.600 C 292.000 197.820,292.810 198.000,293.800 198.000 C 294.790 198.000,295.600 197.820,295.600 197.600 C 295.600 197.380,296.005 197.194,296.500 197.187 C 297.647 197.171,298.800 196.303,298.800 195.456 C 298.800 195.095,298.980 194.800,299.200 194.800 C 299.420 194.800,299.600 194.260,299.600 193.600 C 299.600 192.940,299.780 192.400,300.000 192.400 C 300.220 192.400,300.400 192.051,300.400 191.624 C 300.400 191.197,300.220 190.736,300.000 190.600 C 299.780 190.464,299.600 189.905,299.600 189.358 C 299.600 188.255,297.981 186.400,297.018 186.400 C 296.678 186.400,296.400 186.220,296.400 186.000 C 296.400 185.774,295.267 185.600,293.800 185.600 C 292.333 185.600,291.200 185.774,291.200 186.000 M174.800 208.200 L 174.800 226.000 169.600 226.000 L 164.400 226.000 164.400 208.200 L 164.400 190.400 169.600 190.400 L 174.800 190.400 174.800 208.200 M235.600 208.200 L 235.600 226.000 230.400 226.000 L 225.200 226.000 225.200 208.200 L 225.200 190.400 230.400 190.400 L 235.600 190.400 235.600 208.200 M154.400 208.200 L 154.400 221.600 150.400 221.600 C 148.000 221.600,146.400 221.440,146.400 221.200 C 146.400 220.980,146.040 220.800,145.600 220.800 C 145.067 220.800,144.800 220.533,144.800 220.000 C 144.800 219.560,144.620 219.200,144.400 219.200 C 144.143 219.200,144.000 215.267,144.000 208.200 C 144.000 201.133,144.143 197.200,144.400 197.200 C 144.620 197.200,144.800 196.922,144.800 196.583 C 144.800 195.125,145.683 194.831,150.100 194.815 L 154.400 194.800 154.400 208.200 M254.629 195.371 C 254.943 195.686,255.200 196.226,255.200 196.571 C 255.200 196.917,255.380 197.200,255.600 197.200 C 255.857 197.200,256.000 201.133,256.000 208.200 C 256.000 215.267,255.857 219.200,255.600 219.200 C 255.380 219.200,255.200 219.560,255.200 220.000 C 255.200 220.533,254.933 220.800,254.400 220.800 C 253.960 220.800,253.600 220.980,253.600 221.200 C 253.600 221.440,252.000 221.600,249.600 221.600 L 245.600 221.600 245.600 208.200 L 245.600 194.800 249.829 194.800 C 252.960 194.800,254.205 194.948,254.629 195.371 M106.800 205.600 C 106.800 205.820,107.132 206.000,107.539 206.000 C 109.320 206.000,114.400 209.968,114.400 211.360 C 114.400 211.712,114.580 212.000,114.800 212.000 C 115.020 212.000,115.200 212.349,115.200 212.776 C 115.200 213.203,115.380 213.664,115.600 213.800 C 115.863 213.963,116.000 232.396,116.000 267.800 C 116.000 303.204,115.863 321.637,115.600 321.800 C 115.380 321.936,115.200 322.487,115.200 323.024 C 115.200 323.561,115.020 324.000,114.800 324.000 C 114.580 324.000,114.400 324.241,114.400 324.535 C 114.400 325.803,108.970 329.996,107.324 329.999 C 106.842 329.999,106.336 330.180,106.200 330.400 C 106.038 330.663,91.063 330.800,62.576 330.800 C 33.925 330.800,19.200 330.664,19.200 330.400 C 19.200 330.180,18.660 330.000,18.000 330.000 C 17.340 330.000,16.800 329.820,16.800 329.600 C 16.800 329.380,16.532 329.200,16.205 329.200 C 15.099 329.200,10.400 324.854,10.400 323.832 C 10.400 323.484,10.220 323.200,10.000 323.200 C 9.780 323.200,9.600 322.480,9.600 321.600 C 9.600 320.720,9.420 320.000,9.200 320.000 C 8.935 320.000,8.800 302.400,8.800 268.000 C 8.800 233.600,8.935 216.000,9.200 216.000 C 9.420 216.000,9.600 215.280,9.600 214.400 C 9.600 213.520,9.780 212.800,10.000 212.800 C 10.220 212.800,10.400 212.480,10.400 212.088 C 10.400 211.697,10.760 211.117,11.200 210.800 C 11.640 210.483,12.000 209.980,12.000 209.683 C 12.000 208.960,12.997 208.000,13.748 208.000 C 14.081 208.000,14.457 207.831,14.584 207.625 C 14.924 207.075,17.209 206.000,18.038 206.000 C 18.431 206.000,18.864 205.820,19.000 205.600 C 19.162 205.337,34.271 205.200,63.024 205.200 C 91.941 205.200,106.800 205.336,106.800 205.600 M57.000 225.034 C 54.681 225.263,51.062 226.074,50.620 226.464 C 50.411 226.649,49.736 226.800,49.120 226.800 C 48.504 226.800,48.000 226.980,48.000 227.200 C 48.000 227.420,47.665 227.600,47.256 227.600 C 46.454 227.600,41.487 230.005,41.267 230.500 C 41.193 230.665,40.828 230.800,40.455 230.800 C 40.082 230.800,39.517 231.160,39.200 231.600 C 38.883 232.040,38.375 232.400,38.072 232.400 C 37.769 232.400,37.017 232.940,36.400 233.600 C 35.783 234.260,35.089 234.800,34.857 234.800 C 34.361 234.800,29.600 239.537,29.600 240.029 C 29.600 240.213,29.158 240.805,28.618 241.345 C 27.295 242.669,24.800 246.612,24.800 247.381 C 24.800 247.721,24.620 248.000,24.400 248.000 C 24.180 248.000,24.000 248.360,24.000 248.800 C 24.000 249.240,23.820 249.600,23.600 249.600 C 23.380 249.600,23.200 249.960,23.200 250.400 C 23.200 250.840,23.020 251.200,22.800 251.200 C 22.580 251.200,22.400 251.740,22.400 252.400 C 22.400 253.060,22.220 253.600,22.000 253.600 C 21.780 253.600,21.600 254.129,21.600 254.776 C 21.600 255.423,21.420 256.064,21.200 256.200 C 20.980 256.336,20.800 257.146,20.800 258.000 C 20.800 258.854,20.620 259.664,20.400 259.800 C 19.857 260.136,19.857 276.000,20.400 276.000 C 20.620 276.000,20.800 276.799,20.800 277.776 C 20.800 278.753,20.980 279.664,21.200 279.800 C 21.420 279.936,21.600 280.577,21.600 281.224 C 21.600 281.871,21.780 282.400,22.000 282.400 C 22.220 282.400,22.400 282.850,22.400 283.400 C 22.400 283.950,22.580 284.400,22.800 284.400 C 23.020 284.400,23.200 284.850,23.200 285.400 C 23.200 285.950,23.380 286.400,23.600 286.400 C 23.820 286.400,24.000 286.760,24.000 287.200 C 24.000 287.640,24.180 288.000,24.400 288.000 C 24.620 288.000,24.800 288.338,24.800 288.751 C 24.800 289.164,25.070 289.726,25.400 290.000 C 25.730 290.274,26.000 290.746,26.000 291.049 C 26.000 291.352,26.168 291.600,26.373 291.600 C 26.578 291.600,26.859 291.957,26.998 292.393 C 27.136 292.829,27.958 293.924,28.825 294.826 C 29.691 295.728,30.403 296.586,30.406 296.733 C 30.418 297.210,32.564 299.408,34.000 300.412 C 34.770 300.951,35.922 301.888,36.559 302.496 C 37.197 303.103,37.962 303.600,38.259 303.600 C 38.557 303.600,38.800 303.768,38.800 303.973 C 38.800 304.178,39.159 304.460,39.598 304.599 C 40.036 304.738,40.621 305.072,40.898 305.340 C 41.709 306.127,45.806 308.000,46.716 308.000 C 47.176 308.000,47.664 308.180,47.800 308.400 C 47.936 308.620,48.577 308.800,49.224 308.800 C 49.871 308.800,50.400 308.980,50.400 309.200 C 50.400 309.420,51.120 309.600,52.000 309.600 C 52.880 309.600,53.600 309.780,53.600 310.000 C 53.600 310.231,54.859 310.400,56.576 310.400 C 58.213 310.400,59.664 310.580,59.800 310.800 C 59.936 311.020,61.387 311.200,63.024 311.200 C 64.741 311.200,66.000 311.031,66.000 310.800 C 66.000 310.569,67.259 310.400,68.976 310.400 C 70.613 310.400,72.064 310.220,72.200 310.000 C 72.336 309.780,73.067 309.600,73.824 309.600 C 74.581 309.600,75.200 309.420,75.200 309.200 C 75.200 308.980,75.729 308.800,76.376 308.800 C 77.023 308.800,77.655 308.634,77.781 308.431 C 77.906 308.228,78.592 307.934,79.304 307.777 C 80.935 307.419,84.000 305.946,84.000 305.520 C 84.000 305.344,84.360 305.200,84.800 305.200 C 85.240 305.200,85.600 305.020,85.600 304.800 C 85.600 304.580,85.843 304.400,86.141 304.400 C 86.438 304.400,87.246 303.860,87.937 303.200 C 88.628 302.540,89.315 302.000,89.464 302.000 C 89.915 302.000,97.200 294.399,97.200 293.929 C 97.200 293.690,97.516 293.203,97.903 292.847 C 98.289 292.491,98.860 291.705,99.170 291.100 C 99.481 290.495,99.885 290.000,100.068 290.000 C 100.250 290.000,100.400 289.730,100.400 289.400 C 100.400 289.070,100.580 288.800,100.800 288.800 C 101.020 288.800,101.200 288.440,101.200 288.000 C 101.200 287.560,101.380 287.200,101.600 287.200 C 101.820 287.200,102.000 286.840,102.000 286.400 C 102.000 285.960,102.180 285.600,102.400 285.600 C 102.620 285.600,102.800 285.060,102.800 284.400 C 102.800 283.740,102.980 283.200,103.200 283.200 C 103.420 283.200,103.600 282.761,103.600 282.224 C 103.600 281.687,103.780 281.136,104.000 281.000 C 104.220 280.864,104.400 280.234,104.400 279.600 C 104.400 278.966,104.580 278.336,104.800 278.200 C 105.020 278.064,105.200 276.973,105.200 275.776 C 105.200 274.579,105.380 273.600,105.600 273.600 C 105.848 273.600,106.000 271.475,106.000 268.024 C 106.000 264.737,105.836 262.346,105.600 262.200 C 105.380 262.064,105.200 261.074,105.200 260.000 C 105.200 258.926,105.020 257.936,104.800 257.800 C 104.580 257.664,104.400 257.201,104.400 256.770 C 104.400 255.662,103.465 252.800,103.103 252.800 C 102.936 252.800,102.800 252.260,102.800 251.600 C 102.800 250.940,102.620 250.400,102.400 250.400 C 102.180 250.400,102.000 250.040,102.000 249.600 C 102.000 249.160,101.820 248.800,101.600 248.800 C 101.380 248.800,101.200 248.440,101.200 248.000 C 101.200 247.560,101.020 247.200,100.800 247.200 C 100.580 247.200,100.400 246.964,100.400 246.675 C 100.400 246.387,100.040 245.764,99.600 245.292 C 99.160 244.820,98.800 244.196,98.800 243.905 C 98.800 243.614,98.440 243.117,98.000 242.800 C 97.560 242.483,97.200 242.086,97.200 241.919 C 97.200 241.480,88.977 233.200,88.542 233.200 C 88.341 233.200,87.917 232.840,87.600 232.400 C 87.283 231.960,86.786 231.600,86.495 231.600 C 86.204 231.600,85.580 231.240,85.108 230.800 C 84.636 230.360,84.013 230.000,83.725 230.000 C 83.436 230.000,83.200 229.820,83.200 229.600 C 83.200 229.380,82.840 229.200,82.400 229.200 C 81.960 229.200,81.600 229.020,81.600 228.800 C 81.600 228.580,81.251 228.400,80.824 228.400 C 80.397 228.400,79.936 228.220,79.800 228.000 C 79.664 227.780,79.113 227.600,78.576 227.600 C 78.039 227.600,77.600 227.420,77.600 227.200 C 77.600 226.980,77.148 226.800,76.595 226.800 C 76.042 226.800,75.277 226.641,74.895 226.447 C 72.744 225.355,62.193 224.522,57.000 225.034 M66.800 235.200 C 66.800 235.420,67.700 235.600,68.800 235.600 C 69.900 235.600,70.800 235.780,70.800 236.000 C 70.800 236.220,71.340 236.400,72.000 236.400 C 72.660 236.400,73.200 236.580,73.200 236.800 C 73.200 237.020,73.740 237.200,74.400 237.200 C 75.060 237.200,75.601 237.335,75.601 237.500 C 75.602 237.665,76.592 238.250,77.800 238.800 C 79.008 239.350,79.998 239.894,79.999 240.009 C 79.999 240.124,80.672 240.574,81.494 241.009 C 83.222 241.924,89.600 248.137,89.600 248.906 C 89.600 249.191,89.960 249.683,90.400 250.000 C 90.840 250.317,91.200 250.897,91.200 251.288 C 91.200 251.680,91.380 252.000,91.600 252.000 C 91.820 252.000,92.000 252.265,92.000 252.589 C 92.000 252.913,92.423 254.128,92.939 255.289 C 94.212 258.149,94.800 260.051,94.800 261.305 C 94.800 261.881,94.980 262.464,95.200 262.600 C 95.433 262.744,95.600 265.004,95.600 268.024 C 95.600 271.208,95.446 273.200,95.200 273.200 C 94.980 273.200,94.800 273.822,94.800 274.581 C 94.800 275.341,94.598 276.466,94.350 277.081 C 94.103 277.697,93.761 278.560,93.591 279.000 C 93.421 279.440,92.993 280.457,92.641 281.260 C 92.288 282.064,92.000 283.009,92.000 283.360 C 92.000 283.712,91.820 284.000,91.600 284.000 C 91.380 284.000,91.200 284.272,91.200 284.604 C 91.200 284.936,90.660 285.772,90.000 286.463 C 89.340 287.154,88.800 287.884,88.800 288.085 C 88.800 288.731,83.611 293.538,81.959 294.422 C 81.459 294.689,80.690 295.244,80.250 295.654 C 79.809 296.064,79.213 296.400,78.925 296.400 C 78.636 296.400,78.400 296.580,78.400 296.800 C 78.400 297.020,78.040 297.200,77.600 297.200 C 77.160 297.200,76.799 297.335,76.797 297.500 C 76.793 297.906,74.814 298.800,73.920 298.800 C 73.524 298.800,73.200 298.980,73.200 299.200 C 73.200 299.420,72.671 299.600,72.024 299.600 C 71.377 299.600,70.736 299.780,70.600 300.000 C 70.464 300.220,69.474 300.400,68.400 300.400 C 67.326 300.400,66.336 300.580,66.200 300.800 C 66.064 301.020,64.343 301.200,62.376 301.200 C 60.259 301.200,58.800 301.037,58.800 300.800 C 58.800 300.580,58.001 300.400,57.024 300.400 C 56.047 300.400,55.136 300.220,55.000 300.000 C 54.864 299.780,54.324 299.600,53.800 299.600 C 53.276 299.600,52.736 299.420,52.600 299.200 C 52.464 298.980,51.913 298.800,51.376 298.800 C 50.839 298.800,50.400 298.620,50.400 298.400 C 50.400 298.180,50.040 298.000,49.600 298.000 C 49.160 298.000,48.800 297.820,48.800 297.600 C 48.800 297.380,48.440 297.200,48.000 297.200 C 47.560 297.200,47.200 297.020,47.200 296.800 C 47.200 296.580,46.840 296.400,46.400 296.400 C 45.960 296.400,45.600 296.232,45.600 296.027 C 45.600 295.822,45.261 295.546,44.848 295.415 C 44.434 295.284,43.669 294.811,43.148 294.364 C 42.626 293.917,41.794 293.202,41.297 292.776 C 40.800 292.349,40.281 292.000,40.144 292.000 C 39.835 292.000,38.400 290.373,38.400 290.022 C 38.400 289.882,37.815 289.140,37.100 288.374 C 36.385 287.608,35.545 286.491,35.232 285.891 C 34.920 285.291,34.515 284.800,34.332 284.800 C 34.150 284.800,34.000 284.440,34.000 284.000 C 34.000 283.560,33.820 283.200,33.600 283.200 C 33.380 283.200,33.200 282.840,33.200 282.400 C 33.200 281.960,33.020 281.600,32.800 281.600 C 32.580 281.600,32.400 281.240,32.400 280.800 C 32.400 280.360,32.220 280.000,32.000 280.000 C 31.780 280.000,31.600 279.460,31.600 278.800 C 31.600 278.140,31.420 277.600,31.200 277.600 C 30.980 277.600,30.800 276.970,30.800 276.200 C 30.800 275.430,30.620 274.800,30.400 274.800 C 30.175 274.800,30.000 273.675,30.000 272.224 C 30.000 270.807,29.820 269.536,29.600 269.400 C 29.380 269.264,29.200 268.533,29.200 267.776 C 29.200 267.019,29.380 266.400,29.600 266.400 C 29.825 266.400,30.000 265.275,30.000 263.824 C 30.000 262.407,30.180 261.136,30.400 261.000 C 30.620 260.864,30.800 260.133,30.800 259.376 C 30.800 258.619,30.980 258.000,31.200 258.000 C 31.420 258.000,31.600 257.550,31.600 257.000 C 31.600 256.450,31.780 256.000,32.000 256.000 C 32.220 256.000,32.400 255.640,32.400 255.200 C 32.400 254.760,32.580 254.400,32.800 254.400 C 33.020 254.400,33.200 254.040,33.200 253.600 C 33.200 253.160,33.380 252.800,33.600 252.800 C 33.820 252.800,34.000 252.440,34.000 252.000 C 34.000 251.560,34.150 251.200,34.332 251.200 C 34.515 251.200,34.919 250.705,35.230 250.100 C 35.540 249.495,36.111 248.709,36.497 248.353 C 36.884 247.997,37.200 247.521,37.200 247.294 C 37.200 246.795,40.589 243.316,42.162 242.200 C 42.781 241.760,43.526 241.175,43.816 240.900 C 44.106 240.625,44.626 240.400,44.971 240.400 C 45.317 240.400,45.600 240.252,45.600 240.071 C 45.600 239.701,50.747 237.200,51.509 237.200 C 51.779 237.200,52.000 237.020,52.000 236.800 C 52.000 236.580,52.630 236.400,53.400 236.400 C 54.170 236.400,54.800 236.220,54.800 236.000 C 54.800 235.780,55.599 235.600,56.576 235.600 C 57.553 235.600,58.464 235.420,58.600 235.200 C 58.738 234.977,60.604 234.800,62.824 234.800 C 65.208 234.800,66.800 234.960,66.800 235.200 M50.300 242.240 C 49.475 242.595,48.800 243.136,48.800 243.443 C 48.800 243.749,48.620 244.000,48.400 244.000 C 48.138 244.000,48.000 252.200,48.000 267.800 C 48.000 283.400,48.138 291.600,48.400 291.600 C 48.620 291.600,48.800 291.960,48.800 292.400 C 48.800 292.933,49.067 293.200,49.600 293.200 C 50.040 293.200,50.400 293.380,50.400 293.600 C 50.400 294.432,55.770 294.074,56.400 293.200 C 56.717 292.760,57.130 292.400,57.317 292.400 C 57.504 292.400,57.908 292.175,58.215 291.900 C 59.483 290.763,59.983 290.400,60.283 290.399 C 60.457 290.399,61.230 289.859,62.000 289.200 C 62.770 288.541,63.543 288.001,63.718 288.001 C 63.893 288.000,64.486 287.550,65.036 287.000 C 65.586 286.450,66.200 286.000,66.400 286.000 C 66.600 286.000,67.214 285.550,67.764 285.000 C 68.314 284.450,68.925 284.000,69.122 284.000 C 69.320 284.000,70.046 283.460,70.737 282.800 C 71.428 282.140,72.094 281.600,72.218 281.600 C 72.342 281.600,73.019 281.061,73.722 280.402 C 74.425 279.743,75.153 279.203,75.340 279.202 C 75.526 279.201,76.183 278.660,76.800 278.000 C 77.417 277.340,78.143 276.800,78.414 276.800 C 78.684 276.800,79.197 276.467,79.553 276.059 C 79.909 275.652,80.830 274.997,81.600 274.603 C 82.370 274.210,83.090 273.777,83.200 273.642 C 83.310 273.506,84.075 272.892,84.900 272.277 C 85.725 271.662,86.400 270.819,86.400 270.403 C 86.400 269.987,86.580 269.536,86.800 269.400 C 88.035 268.636,86.335 264.111,84.447 263.139 C 83.871 262.843,83.001 262.209,82.513 261.731 C 82.025 261.253,81.260 260.746,80.813 260.604 C 80.366 260.462,80.000 260.219,80.000 260.064 C 80.000 259.909,79.325 259.428,78.500 258.996 C 77.675 258.564,76.709 257.894,76.353 257.506 C 75.997 257.117,75.591 256.800,75.449 256.800 C 75.308 256.800,74.628 256.260,73.937 255.600 C 73.246 254.940,72.526 254.400,72.337 254.400 C 72.148 254.400,71.428 253.860,70.737 253.200 C 70.046 252.540,69.326 252.000,69.137 252.000 C 68.948 252.000,68.228 251.460,67.537 250.800 C 66.846 250.140,66.126 249.600,65.937 249.600 C 65.748 249.600,65.028 249.060,64.337 248.400 C 63.646 247.740,62.920 247.200,62.722 247.200 C 62.525 247.200,61.914 246.750,61.364 246.200 C 60.814 245.650,60.205 245.200,60.010 245.200 C 59.816 245.200,59.419 244.975,59.129 244.700 C 56.153 241.885,53.101 241.035,50.300 242.240 M172.400 250.000 C 172.400 250.220,172.117 250.400,171.771 250.400 C 171.080 250.400,170.463 250.969,169.700 252.310 C 169.104 253.358,169.020 258.800,169.600 258.800 C 169.820 258.800,170.000 259.087,170.000 259.437 C 170.000 259.788,170.360 260.169,170.800 260.284 C 171.240 260.399,171.600 260.652,171.600 260.847 C 171.600 261.041,171.960 261.200,172.400 261.200 C 172.840 261.200,173.200 261.380,173.200 261.600 C 173.200 261.820,174.010 262.000,175.000 262.000 C 175.990 262.000,176.800 261.820,176.800 261.600 C 176.800 261.380,177.205 261.194,177.700 261.187 C 178.847 261.171,180.000 260.303,180.000 259.456 C 180.000 259.095,180.180 258.800,180.400 258.800 C 180.620 258.800,180.800 258.275,180.800 257.633 C 180.800 256.992,181.025 256.385,181.300 256.286 C 181.700 256.141,181.700 255.935,181.300 255.258 C 181.025 254.792,180.800 253.950,180.800 253.387 C 180.800 252.260,179.192 250.400,178.218 250.400 C 177.878 250.400,177.600 250.220,177.600 250.000 C 177.600 249.774,176.467 249.600,175.000 249.600 C 173.533 249.600,172.400 249.774,172.400 250.000 M60.847 258.890 C 61.203 259.280,61.671 259.600,61.888 259.600 C 62.104 259.600,62.846 260.140,63.537 260.800 C 64.228 261.460,64.992 262.000,65.236 262.000 C 65.480 262.000,66.183 262.540,66.800 263.200 C 67.417 263.860,68.137 264.400,68.400 264.400 C 68.663 264.400,69.383 264.940,70.000 265.600 C 70.617 266.260,71.332 266.800,71.589 266.800 C 72.627 266.800,73.308 267.949,72.657 268.600 C 72.327 268.930,71.863 269.200,71.625 269.200 C 71.387 269.200,70.628 269.740,69.937 270.400 C 69.246 271.060,68.526 271.600,68.337 271.600 C 68.148 271.600,67.428 272.140,66.737 272.800 C 66.046 273.460,65.238 274.000,64.941 274.000 C 64.643 274.000,64.400 274.141,64.400 274.314 C 64.400 274.486,63.815 274.969,63.100 275.386 C 61.583 276.272,58.731 278.422,58.306 279.000 C 58.144 279.220,58.009 274.311,58.006 268.091 L 58.000 256.782 59.100 257.480 C 59.705 257.865,60.491 258.499,60.847 258.890 M370.974 263.300 C 373.044 265.335,376.480 268.620,378.610 270.600 C 380.739 272.580,382.905 274.605,383.422 275.100 C 383.940 275.595,384.517 276.000,384.704 276.000 C 385.293 276.000,388.000 278.682,388.000 279.266 C 388.000 279.572,388.360 280.083,388.800 280.400 C 389.240 280.717,389.600 281.297,389.600 281.688 C 389.600 282.080,389.780 282.400,390.000 282.400 C 390.220 282.400,390.400 283.120,390.400 284.000 C 390.400 284.880,390.580 285.600,390.800 285.600 C 391.062 285.600,391.200 294.067,391.200 310.200 C 391.200 326.333,391.062 334.800,390.800 334.800 C 390.580 334.800,390.400 335.520,390.400 336.400 C 390.400 337.280,390.220 338.000,390.000 338.000 C 389.780 338.000,389.600 338.320,389.600 338.712 C 389.600 339.103,389.240 339.683,388.800 340.000 C 388.360 340.317,387.997 340.852,387.993 341.188 C 387.985 341.865,383.337 344.800,382.273 344.800 C 381.903 344.800,381.600 344.980,381.600 345.200 C 381.600 345.454,378.608 345.600,373.424 345.600 C 368.404 345.600,365.152 345.754,365.000 346.000 C 364.318 347.104,341.948 346.366,340.800 345.201 C 340.690 345.090,340.132 344.758,339.561 344.464 C 338.214 343.772,336.400 342.209,336.400 341.742 C 336.400 341.541,336.040 341.117,335.600 340.800 C 335.160 340.483,334.800 339.903,334.800 339.512 C 334.800 339.120,334.620 338.800,334.400 338.800 C 334.180 338.800,334.000 338.080,334.000 337.200 C 334.000 336.320,333.820 335.600,333.600 335.600 C 333.338 335.600,333.200 327.208,333.200 311.224 C 333.200 295.404,333.340 286.760,333.600 286.600 C 333.820 286.464,334.000 285.834,334.000 285.200 C 334.000 284.566,334.180 283.936,334.400 283.800 C 334.620 283.664,334.800 283.236,334.800 282.849 C 334.800 282.069,338.411 277.940,342.352 274.214 C 343.756 272.886,347.581 269.138,350.852 265.885 L 356.800 259.969 356.800 265.385 C 356.800 270.533,356.761 270.800,356.000 270.800 C 355.560 270.800,355.200 270.980,355.200 271.200 C 355.200 271.420,354.840 271.600,354.400 271.600 C 353.960 271.600,353.600 271.780,353.600 272.000 C 353.600 272.220,353.334 272.400,353.009 272.400 C 352.307 272.400,348.000 276.476,348.000 277.140 C 348.000 277.393,347.820 277.600,347.600 277.600 C 347.380 277.600,347.200 277.960,347.200 278.400 C 347.200 278.840,347.020 279.200,346.800 279.200 C 346.580 279.200,346.400 279.549,346.400 279.976 C 346.400 280.403,346.220 280.864,346.000 281.000 C 345.769 281.142,345.600 283.271,345.600 286.024 C 345.600 288.941,345.756 290.800,346.000 290.800 C 346.220 290.800,346.400 291.340,346.400 292.000 C 346.400 292.660,346.580 293.200,346.800 293.200 C 347.020 293.200,347.200 293.477,347.200 293.816 C 347.200 295.335,354.189 301.200,355.999 301.200 C 356.414 301.200,356.864 301.380,357.000 301.600 C 357.140 301.827,359.137 302.000,361.624 302.000 C 364.275 302.000,366.000 301.842,366.000 301.600 C 366.000 301.380,366.540 301.200,367.200 301.200 C 367.860 301.200,368.400 301.020,368.400 300.800 C 368.400 300.580,368.636 300.400,368.925 300.400 C 369.213 300.400,369.836 300.040,370.308 299.600 C 370.780 299.160,371.290 298.800,371.440 298.800 C 371.735 298.800,373.369 297.075,374.500 295.569 C 374.885 295.057,375.200 294.314,375.200 293.919 C 375.200 293.523,375.380 293.200,375.600 293.200 C 375.820 293.200,376.000 292.840,376.000 292.400 C 376.000 291.960,376.180 291.600,376.400 291.600 C 376.620 291.600,376.800 290.880,376.800 290.000 C 376.800 289.120,376.980 288.400,377.200 288.400 C 377.420 288.400,377.600 287.511,377.600 286.424 C 377.600 285.337,377.420 284.336,377.200 284.200 C 376.980 284.064,376.800 283.063,376.800 281.976 C 376.800 280.889,376.620 280.000,376.400 280.000 C 376.180 280.000,376.000 279.640,376.000 279.200 C 376.000 278.760,375.820 278.400,375.600 278.400 C 375.380 278.400,375.200 278.131,375.200 277.803 C 375.200 276.998,370.634 272.400,369.834 272.400 C 369.485 272.400,369.200 272.220,369.200 272.000 C 369.200 271.780,368.917 271.600,368.571 271.600 C 367.057 271.600,366.800 270.646,366.800 265.029 C 366.800 262.043,366.892 259.600,367.005 259.600 C 367.118 259.600,368.904 261.265,370.974 263.300 M132.400 267.800 L 132.400 275.200 129.200 275.200 L 126.000 275.200 126.000 267.800 L 126.000 260.400 129.200 260.400 L 132.400 260.400 132.400 267.800 M363.280 280.500 C 364.686 281.309,366.800 283.523,366.800 284.187 C 366.800 284.524,366.980 284.800,367.200 284.800 C 367.420 284.800,367.600 285.340,367.600 286.000 C 367.600 286.660,367.420 287.200,367.200 287.200 C 366.980 287.200,366.800 287.560,366.800 288.000 C 366.800 288.440,366.620 288.800,366.400 288.800 C 366.180 288.800,366.000 289.160,366.000 289.600 C 366.000 290.044,365.733 290.400,365.400 290.400 C 365.070 290.400,364.799 290.535,364.797 290.700 C 364.777 292.618,359.183 292.263,357.507 290.237 C 357.126 289.777,356.613 289.163,356.367 288.874 C 355.445 287.789,355.821 283.758,356.960 282.530 C 357.532 281.913,358.000 281.271,358.000 281.104 C 358.000 280.937,358.360 280.800,358.800 280.800 C 359.240 280.800,359.600 280.620,359.600 280.400 C 359.600 279.832,362.243 279.904,363.280 280.500 M330.063 350.800 C 330.754 351.460,331.522 352.000,331.771 352.000 C 332.020 352.000,332.483 352.360,332.800 352.800 C 333.117 353.240,333.697 353.600,334.088 353.600 C 334.480 353.600,334.800 353.780,334.800 354.000 C 334.800 354.220,335.160 354.400,335.600 354.400 C 336.040 354.400,336.400 354.580,336.400 354.800 C 336.400 355.020,336.839 355.200,337.376 355.200 C 337.913 355.200,338.464 355.380,338.600 355.600 C 338.736 355.820,339.546 356.000,340.400 356.000 C 341.254 356.000,342.064 356.180,342.200 356.400 C 342.564 356.989,356.212 356.920,357.869 356.320 C 359.365 355.780,360.362 356.554,360.387 358.276 C 360.394 358.758,360.580 359.264,360.800 359.400 C 361.020 359.536,361.200 360.076,361.200 360.600 C 361.200 361.124,361.380 361.664,361.600 361.800 C 361.820 361.936,362.000 362.476,362.000 363.000 C 362.000 363.524,362.180 364.064,362.400 364.200 C 362.620 364.336,362.800 364.876,362.800 365.400 C 362.800 365.924,362.980 366.464,363.200 366.600 C 363.420 366.736,363.600 367.276,363.600 367.800 C 363.600 368.324,363.780 368.864,364.000 369.000 C 364.220 369.136,364.400 369.676,364.400 370.200 C 364.400 370.724,364.580 371.264,364.800 371.400 C 365.020 371.536,365.200 372.087,365.200 372.624 C 365.200 373.161,365.380 373.600,365.600 373.600 C 365.820 373.600,366.000 374.140,366.000 374.800 C 366.000 375.460,366.180 376.000,366.400 376.000 C 366.620 376.000,366.800 376.540,366.800 377.200 C 366.800 377.860,366.980 378.400,367.200 378.400 C 367.420 378.400,367.600 378.940,367.600 379.600 C 367.600 380.260,367.780 380.800,368.000 380.800 C 368.220 380.800,368.400 381.340,368.400 382.000 C 368.400 382.660,368.580 383.200,368.800 383.200 C 369.020 383.200,369.200 383.740,369.200 384.400 C 369.200 385.060,369.380 385.600,369.600 385.600 C 369.820 385.600,370.000 386.238,370.000 387.018 C 370.000 388.534,368.576 390.400,367.418 390.400 C 367.078 390.400,366.800 390.580,366.800 390.800 C 366.800 391.444,170.243 391.345,169.113 390.700 C 167.158 389.584,165.607 384.800,167.200 384.800 C 167.420 384.800,167.600 384.260,167.600 383.600 C 167.600 382.940,167.780 382.400,168.000 382.400 C 168.220 382.400,168.400 381.860,168.400 381.200 C 168.400 380.540,168.580 380.000,168.800 380.000 C 169.020 380.000,169.200 379.460,169.200 378.800 C 169.200 378.140,169.380 377.600,169.600 377.600 C 169.820 377.600,170.000 377.060,170.000 376.400 C 170.000 375.740,170.180 375.200,170.400 375.200 C 170.620 375.200,170.800 374.761,170.800 374.224 C 170.800 373.687,170.980 373.136,171.200 373.000 C 171.420 372.864,171.600 372.324,171.600 371.800 C 171.600 371.276,171.780 370.736,172.000 370.600 C 172.220 370.464,172.400 369.924,172.400 369.400 C 172.400 368.876,172.580 368.336,172.800 368.200 C 173.020 368.064,173.200 367.601,173.200 367.171 C 173.200 366.741,173.363 366.077,173.563 365.695 C 174.160 364.553,175.200 360.778,175.200 359.754 C 175.200 359.229,175.380 358.800,175.600 358.800 C 175.820 358.800,176.000 358.350,176.000 357.800 C 176.000 357.250,176.180 356.800,176.400 356.800 C 176.620 356.800,176.800 356.260,176.800 355.600 C 176.800 354.940,176.980 354.400,177.200 354.400 C 177.420 354.400,177.600 353.860,177.600 353.200 C 177.600 352.540,177.780 352.000,178.000 352.000 C 178.220 352.000,178.400 351.460,178.400 350.800 L 178.400 349.600 253.604 349.600 L 328.807 349.600 330.063 350.800 M204.400 365.600 C 204.400 365.820,204.105 366.000,203.744 366.000 C 202.897 366.000,202.029 367.153,202.013 368.300 C 202.006 368.795,201.820 369.200,201.600 369.200 C 201.380 369.200,201.200 369.639,201.200 370.176 C 201.200 370.713,201.380 371.264,201.600 371.400 C 201.820 371.536,202.000 372.009,202.000 372.452 C 202.000 373.342,202.571 374.035,203.882 374.737 C 204.527 375.082,220.949 375.198,268.474 375.194 L 332.200 375.187 333.500 374.041 C 335.537 372.245,335.448 368.502,333.322 366.554 L 331.844 365.200 268.122 365.200 C 225.907 365.200,204.400 365.335,204.400 365.600 " stroke="none" fill="#040404" fill-rule="evenodd"></path><path id="path1" d="" stroke="none" fill="#080404" fill-rule="evenodd"></path><path id="path2" d="" stroke="none" fill="#080404" fill-rule="evenodd"></path><path id="path3" d="" stroke="none" fill="#080404" fill-rule="evenodd"></path><path id="path4" d="" stroke="none" fill="#080404" fill-rule="evenodd"></path></g></svg>